<?xml version="1.0" standalone="no"?>
<!DOCTYPE svg PUBLIC "-//W3C//DTD SVG 20010904//EN"
 "http://www.w3.org/TR/2001/REC-SVG-20010904/DTD/svg10.dtd">
<svg version="1.0" xmlns="http://www.w3.org/2000/svg"
 width="1280.000000pt" height="1280.000000pt" viewBox="0 0 1280.000000 1280.000000"
 preserveAspectRatio="xMidYMid meet">
<metadata>
Created by potrace 1.14, written by Peter Selinger 2001-2017
</metadata>
<g transform="translate(0.000000,1280.000000) scale(0.100000,-0.100000)"
fill="#000000" stroke="none">
<path d="M5785 9726 c-22 -7 -49 -16 -60 -21 -11 -4 -49 -19 -85 -32 -191 -72
-279 -113 -286 -135 -3 -10 -14 -18 -25 -18 -10 0 -19 -4 -19 -10 0 -5 -10
-10 -21 -10 -40 0 -100 -24 -118 -46 -25 -31 -36 -129 -18 -155 8 -10 16 -17
18 -14 3 2 5 -4 6 -13 5 -63 80 -162 123 -162 21 0 72 -57 96 -108 21 -45 26
-178 8 -214 -8 -15 -14 -32 -14 -38 0 -12 77 -89 104 -105 15 -9 17 -20 10
-97 l-7 -88 -110 -92 c-60 -51 -121 -102 -135 -114 -23 -19 -24 -22 -9 -31 16
-8 16 -12 2 -46 -8 -20 -19 -65 -24 -101 -5 -36 -27 -104 -50 -156 -31 -69
-46 -125 -65 -233 -33 -186 -37 -251 -42 -637 -3 -179 -6 -377 -7 -440 -2
-100 1 -121 20 -163 l22 -47 -20 -48 c-23 -51 -22 -85 6 -202 8 -36 15 -96 15
-135 0 -38 6 -87 14 -110 20 -55 46 -168 57 -240 5 -33 14 -73 19 -90 5 -16
17 -66 26 -110 21 -99 34 -115 90 -115 l43 0 -6 -87 c-4 -67 -1 -112 15 -188
11 -55 28 -165 37 -245 72 -625 131 -1012 180 -1180 49 -167 68 -209 127 -291
l47 -66 16 -129 c8 -71 15 -150 15 -176 0 -26 4 -58 10 -73 5 -14 14 -56 20
-93 6 -37 26 -119 46 -182 34 -113 56 -205 74 -307 13 -78 47 -180 83 -253 35
-70 63 -92 123 -92 24 0 35 -5 39 -19 4 -11 24 -33 45 -50 32 -26 39 -39 45
-81 5 -32 3 -53 -4 -57 -5 -4 -20 -28 -31 -54 -15 -34 -31 -53 -55 -64 -27
-13 -36 -25 -45 -61 -23 -92 -62 -140 -175 -217 -33 -22 -70 -53 -84 -69 -46
-53 -51 -56 -89 -52 -20 3 -116 8 -212 11 -96 4 -206 9 -245 11 -380 19 -439
17 -554 -22 -24 -8 -46 -12 -49 -9 -3 2 -10 1 -16 -5 -7 -5 -54 -10 -106 -10
-69 -2 -102 -7 -120 -18 -52 -34 -77 -44 -155 -59 -44 -9 -87 -16 -95 -17 -9
-1 -21 -5 -27 -9 -7 -5 -36 -11 -65 -14 -29 -3 -66 -13 -83 -21 -16 -8 -46
-17 -65 -18 -86 -8 -136 -17 -145 -25 -14 -14 -53 -11 -80 7 -23 15 -24 15
-38 -19 -20 -48 -32 -52 -78 -28 -22 12 -44 19 -49 16 -4 -3 -10 1 -13 7 -2 7
-2 -10 0 -37 4 -43 2 -53 -17 -70 -15 -13 -24 -16 -27 -9 -2 7 -12 10 -22 7
-9 -2 -23 3 -31 11 -10 13 -16 14 -27 4 -9 -7 -40 -12 -74 -11 -53 2 -58 0
-50 -15 12 -24 4 -40 -30 -58 -27 -13 -31 -13 -45 1 -8 8 -12 19 -9 25 3 5 1
10 -5 10 -6 0 -13 -7 -16 -15 -4 -8 -12 -15 -19 -15 -8 0 -22 -11 -33 -25 -22
-27 -106 -75 -133 -75 -10 0 -22 7 -26 15 -8 13 -11 13 -28 -3 -11 -10 -28
-16 -37 -14 -10 2 -28 -4 -40 -12 -28 -20 -38 -20 -38 -1 0 19 -14 19 -30 0
-21 -25 -50 -18 -61 15 -11 31 -34 32 -24 1 3 -11 -6 -29 -26 -49 -35 -36 -55
-37 -52 -3 2 17 -3 21 -26 21 -16 0 -31 5 -33 11 -2 7 -18 13 -36 14 -28 2
-32 0 -32 -21 0 -17 -6 -24 -20 -24 -11 0 -20 5 -20 10 0 6 -4 10 -10 10 -5 0
-10 -7 -10 -15 0 -16 -9 -19 -34 -9 -8 3 -12 12 -9 21 5 13 1 15 -18 10 -13
-3 -30 -2 -38 2 -8 5 -24 3 -40 -5 -14 -8 -33 -14 -41 -14 -9 0 -22 -6 -29
-12 -8 -8 -11 -8 -8 -2 8 15 -36 24 -57 12 -22 -12 -96 2 -96 18 0 21 -12 17
-36 -13 -16 -20 -31 -27 -63 -29 -37 -2 -41 0 -41 21 0 20 -4 22 -38 20 -20
-2 -50 -10 -67 -19 -16 -9 -49 -16 -73 -16 -28 0 -45 -5 -48 -15 -8 -19 -44 3
-44 27 0 26 -37 22 -72 -7 -31 -26 -62 -32 -73 -15 -10 16 -22 12 -28 -9 -2
-10 -16 -20 -31 -23 -21 -4 -26 -1 -26 15 0 17 -5 19 -42 13 -27 -4 -38 -3
-29 3 26 17 -8 22 -40 5 -26 -13 -36 -14 -55 -4 -12 7 -29 10 -37 7 -8 -3 -20
0 -26 6 -8 8 -11 8 -11 -1 0 -6 -14 -19 -31 -27 -24 -13 -33 -14 -45 -4 -11 9
-21 9 -39 1 -14 -7 -25 -8 -25 -2 0 5 -10 15 -22 21 -17 9 -24 8 -34 -5 -9
-14 -23 -16 -75 -11 -36 4 -71 13 -81 22 -10 9 -26 13 -38 10 -11 -3 -22 -1
-25 4 -3 4 -13 5 -22 2 -13 -5 -15 -2 -11 14 5 20 4 20 -28 7 -53 -22 -116
-18 -134 9 -8 12 -13 28 -12 35 4 19 -25 14 -40 -6 -17 -24 -78 -34 -118 -19
-32 12 -37 26 -18 45 21 21 -27 14 -52 -8 -30 -26 -33 -25 -26 4 l6 24 -45
-24 -45 -24 5 31 c3 17 12 44 21 60 18 36 13 37 -21 4 l-25 -26 0 -424 0 -425
5711 0 c5433 0 5710 1 5707 18 -2 10 -13 17 -27 17 -15 0 -33 14 -52 40 -17
23 -29 32 -29 22 0 -9 -5 -19 -11 -22 -12 -8 -49 22 -49 39 0 7 -13 17 -30 23
-24 9 -30 9 -30 -2 0 -22 -33 -28 -47 -9 -7 10 -13 22 -13 27 0 4 -8 6 -18 3
-12 -4 -26 1 -37 14 -22 24 -40 26 -31 4 4 -12 1 -14 -14 -9 -14 5 -20 2 -20
-10 0 -8 -8 -19 -17 -22 -10 -4 -22 -11 -26 -17 -4 -6 -5 1 -1 16 8 35 -10 43
-70 30 l-46 -9 -5 31 c-12 62 -19 65 -166 72 l-134 6 -65 45 c-256 175 -250
169 -250 257 0 39 -5 78 -10 86 -7 11 -36 16 -122 18 -118 4 -131 9 -195 64
-18 15 -57 43 -85 63 -159 107 -194 139 -207 189 -17 67 -38 87 -96 90 -130 9
-435 26 -565 32 -80 4 -161 8 -180 10 -19 1 -98 5 -175 8 -146 6 -429 20 -745
36 -102 5 -257 12 -345 15 -150 5 -265 10 -860 39 l-240 11 -2 105 c-2 58 -7
127 -13 153 -5 26 -10 63 -10 80 0 21 -7 38 -20 47 -11 8 -20 26 -20 41 0 15
-12 58 -26 95 -16 42 -28 99 -31 147 -5 67 -3 80 13 98 14 15 19 36 19 77 0
51 2 56 25 62 19 5 25 12 23 31 -4 53 -24 156 -38 189 -9 23 -15 90 -19 190
-2 85 -9 182 -15 215 -23 137 -31 208 -26 213 3 4 29 -20 58 -52 46 -51 75
-71 207 -145 19 -10 67 -42 105 -71 72 -53 76 -54 159 -38 35 6 41 -25 17 -82
-14 -32 -21 -63 -17 -79 3 -14 9 -46 14 -71 5 -25 16 -62 25 -84 11 -24 19
-82 23 -155 5 -83 11 -121 22 -134 13 -15 14 -24 3 -65 -21 -78 -29 -152 -30
-255 -1 -113 18 -164 72 -197 134 -82 364 124 435 390 22 81 29 140 37 325 3
66 11 154 16 195 21 151 28 216 29 268 0 98 -52 161 -181 220 -37 16 -69 34
-73 40 -4 6 -13 9 -21 5 -33 -12 -43 12 -61 137 -11 77 -22 90 -131 147 -45
23 -127 129 -172 222 -21 43 -54 95 -74 115 -37 37 -67 93 -67 125 0 10 9 35
19 57 10 21 46 127 79 234 104 336 152 562 177 820 13 137 17 168 60 450 20
129 40 242 44 250 5 8 24 16 45 18 33 3 36 1 36 -22 0 -44 33 -221 42 -227 17
-11 -16 -116 -74 -234 -33 -66 -64 -125 -70 -132 -8 -10 -4 -26 14 -61 14 -26
28 -59 32 -74 3 -16 11 -28 16 -28 6 0 10 -7 10 -15 0 -8 -4 -15 -10 -15 -19
0 -11 -73 11 -96 17 -18 19 -26 9 -43 -12 -23 -15 -152 -5 -192 4 -13 25 -37
47 -52 38 -27 44 -28 113 -22 l73 7 43 -48 c24 -27 77 -83 118 -124 40 -41 85
-88 100 -103 29 -31 97 -70 113 -65 11 4 -78 98 -92 98 -5 0 -25 14 -45 31
-26 23 -33 37 -30 52 5 17 -5 30 -44 61 -27 22 -54 50 -60 63 -6 13 -22 29
-36 35 -34 15 -28 41 12 49 18 3 39 11 46 17 7 6 43 12 80 14 62 2 68 1 83
-22 29 -43 147 -154 208 -194 95 -63 149 -163 159 -294 3 -44 1 -56 -14 -65
-46 -29 -9 -49 45 -24 28 12 28 12 23 88 -5 70 -8 81 -48 138 -24 34 -49 71
-55 82 -15 26 -65 79 -76 79 -11 0 -62 52 -142 143 -68 79 -68 79 -49 100 22
24 45 153 41 225 -2 39 -4 42 -30 42 -15 0 -28 5 -28 11 0 6 -14 9 -32 7 l-33
-3 -2 82 c-1 45 -6 91 -12 102 -17 30 -13 56 14 107 14 26 25 55 25 66 0 10
-11 41 -25 68 -14 27 -25 60 -25 73 0 14 -9 36 -20 50 -22 28 -26 52 -10 62 7
4 8 31 4 71 -7 64 -3 81 38 170 5 11 10 58 11 105 1 64 -3 97 -19 139 -13 33
-24 93 -28 148 -8 112 -41 300 -63 362 -3 8 -7 22 -8 30 -1 8 -7 31 -13 50 -7
19 -10 70 -9 113 5 98 -6 142 -73 292 -15 35 -18 74 -19 290 -1 138 -3 261 -5
275 -37 245 -61 313 -179 508 -32 51 -57 94 -57 97 0 6 -91 157 -120 200 -21
30 -45 48 -91 69 -151 67 -197 90 -247 123 -29 19 -56 42 -59 51 -7 22 -122
132 -198 191 -33 25 -84 67 -113 93 -29 27 -58 48 -65 48 -6 0 -26 27 -43 60
-32 60 -32 60 -19 128 8 37 21 87 30 111 8 25 20 88 26 140 9 85 8 107 -10
188 -31 139 -55 191 -112 251 -28 28 -61 54 -73 57 -11 2 -73 7 -136 9 -63 3
-162 7 -220 10 -69 3 -119 0 -145 -8z m-565 -371 c-24 -24 -46 -42 -49 -40 -2
3 1 11 7 17 7 7 12 18 12 25 0 22 23 42 50 43 23 0 22 -3 -20 -45z m2500
-2975 c0 -5 -2 -10 -4 -10 -3 0 -8 5 -11 10 -3 6 -1 10 4 10 6 0 11 -4 11 -10z
m103 -1523 c8 -21 -7 -39 -26 -31 -20 7 -21 16 -5 32 16 16 25 15 31 -1z m-13
-86 c0 -5 -6 -14 -14 -20 -10 -8 -16 -8 -25 3 -9 11 -9 15 1 19 21 9 38 8 38
-2z m-4790 -4016 c0 -9 -6 -12 -15 -9 -8 4 -12 10 -9 15 8 14 24 10 24 -6z
m-1825 -126 c-7 -11 -35 -12 -35 -1 0 4 9 8 20 9 11 1 18 -2 15 -8z m355 -12
c0 -13 -39 -41 -47 -34 -2 3 2 14 9 26 14 23 38 28 38 8z"/>
<path d="M8016 3968 c52 -64 79 -87 125 -108 99 -47 60 5 -70 92 -64 43 -83
48 -55 16z"/>
<path d="M486 832 c-3 -9 -9 -23 -12 -29 -3 -7 -2 -13 3 -13 12 0 33 49 23 55
-4 3 -10 -3 -14 -13z"/>
<path d="M1815 740 c-3 -5 1 -10 9 -10 9 0 16 5 16 10 0 6 -4 10 -9 10 -6 0
-13 -4 -16 -10z"/>
<path d="M12422 39 c3 -8 -4 -19 -16 -26 -19 -11 -17 -12 23 -13 43 0 43 0 29
22 -17 25 -43 38 -36 17z"/>
<path d="M11739 14 c-9 -12 -6 -14 21 -14 20 0 30 4 28 12 -6 17 -35 18 -49 2z"/>
<path d="M12507 23 c-12 -11 -8 -23 8 -23 8 0 15 7 15 15 0 16 -12 20 -23 8z"/>
</g>
</svg>
